<mxfile host="Electron" modified="2023-07-27T07:38:07.730Z" agent="Mozilla/5.0 (Windows NT 10.0; Win64; x64) AppleWebKit/537.36 (KHTML, like Gecko) draw.io/21.2.1 Chrome/112.0.5615.87 Electron/24.1.2 Safari/537.36" etag="626H3nR3jghSGu8hGK2s" version="21.2.1" type="device">
  <diagram name="Page-1" id="wOZQiYUK6dFvQU5VIt_m">
    <mxGraphModel dx="1434" dy="964" grid="1" gridSize="10" guides="1" tooltips="1" connect="1" arrows="1" fold="1" page="1" pageScale="1" pageWidth="850" pageHeight="1100" math="0" shadow="0">
      <root>
        <mxCell id="0" />
        <mxCell id="1" parent="0" />
        <mxCell id="qyMslexdIPvZ7T2pLc7d-12" value="AnomalyDetector (OATask)" style="swimlane;fontStyle=3;align=center;verticalAlign=top;childLayout=stackLayout;horizontal=1;startSize=29;horizontalStack=0;resizeParent=1;resizeLast=0;collapsible=1;marginBottom=0;rounded=0;shadow=1;strokeWidth=1;fillColor=#d5e8d4;strokeColor=#82b366;swimlaneFillColor=#ffffff;gradientColor=#FFFFFF;" parent="1" vertex="1">
          <mxGeometry x="120" y="441" width="280" height="61" as="geometry">
            <mxRectangle x="230" y="140" width="160" height="26" as="alternateBounds" />
          </mxGeometry>
        </mxCell>
        <mxCell id="YVy0wCglDntbI4HoHNDa-7" value="_run( p_inst_new : List[Instance])" style="text;align=left;verticalAlign=top;spacingLeft=4;spacingRight=4;overflow=hidden;rotatable=0;points=[[0,0.5],[1,0.5]];portConstraint=eastwest;shadow=1;fontColor=#0000FF;" vertex="1" parent="qyMslexdIPvZ7T2pLc7d-12">
          <mxGeometry y="29" width="280" height="32" as="geometry" />
        </mxCell>
        <mxCell id="qyMslexdIPvZ7T2pLc7d-18" value="AnomalyEvent (bf.eh.Event)" style="swimlane;fontStyle=3;align=center;verticalAlign=top;childLayout=stackLayout;horizontal=1;startSize=26;horizontalStack=0;resizeParent=1;resizeLast=0;collapsible=1;marginBottom=0;rounded=0;shadow=1;strokeWidth=1;fillColor=#E3E3E3;strokeColor=#666666;swimlaneFillColor=#ffffff;gradientColor=#FFFFFF;" parent="1" vertex="1">
          <mxGeometry x="120" y="561" width="280" height="70" as="geometry">
            <mxRectangle x="230" y="140" width="160" height="26" as="alternateBounds" />
          </mxGeometry>
        </mxCell>
        <mxCell id="YVy0wCglDntbI4HoHNDa-2" value="__init__( p_raising_object, p_det_time,&#xa;               p_instance, **p_kwargs )" style="text;align=left;verticalAlign=top;spacingLeft=4;spacingRight=4;overflow=hidden;rotatable=0;points=[[0,0.5],[1,0.5]];portConstraint=eastwest;" vertex="1" parent="qyMslexdIPvZ7T2pLc7d-18">
          <mxGeometry y="26" width="280" height="44" as="geometry" />
        </mxCell>
        <mxCell id="qyMslexdIPvZ7T2pLc7d-29" value="PointAnomaly (AnomalyEvent)" style="swimlane;fontStyle=3;align=center;verticalAlign=top;childLayout=stackLayout;horizontal=1;startSize=26;horizontalStack=0;resizeParent=1;resizeLast=0;collapsible=1;marginBottom=0;rounded=0;shadow=1;strokeWidth=1;fillColor=#E3E3E3;strokeColor=#666666;swimlaneFillColor=#ffffff;gradientColor=#FFFFFF;" parent="1" vertex="1">
          <mxGeometry x="440" y="441" width="280" height="69" as="geometry">
            <mxRectangle x="230" y="140" width="160" height="26" as="alternateBounds" />
          </mxGeometry>
        </mxCell>
        <mxCell id="YVy0wCglDntbI4HoHNDa-5" value="__init__( p_raising_object, p_det_time, &#xa;               p_instance, p_deviation, **p_kwargs )" style="text;align=left;verticalAlign=top;spacingLeft=4;spacingRight=4;overflow=hidden;rotatable=0;points=[[0,0.5],[1,0.5]];portConstraint=eastwest;" vertex="1" parent="qyMslexdIPvZ7T2pLc7d-29">
          <mxGeometry y="26" width="280" height="40" as="geometry" />
        </mxCell>
        <mxCell id="qyMslexdIPvZ7T2pLc7d-33" value="DriftEvent (AnomalyEvent)" style="swimlane;fontStyle=3;align=center;verticalAlign=top;childLayout=stackLayout;horizontal=1;startSize=26;horizontalStack=0;resizeParent=1;resizeLast=0;collapsible=1;marginBottom=0;rounded=0;shadow=1;strokeWidth=1;fillColor=#E3E3E3;strokeColor=#666666;swimlaneFillColor=#ffffff;gradientColor=#FFFFFF;" parent="1" vertex="1">
          <mxGeometry x="120" y="681" width="280" height="70" as="geometry">
            <mxRectangle x="230" y="140" width="160" height="26" as="alternateBounds" />
          </mxGeometry>
        </mxCell>
        <mxCell id="YVy0wCglDntbI4HoHNDa-3" value="__init__( p_raising_object, p_det_time,&#xa;               p_magnitude, p_rate, **p_kwargs )" style="text;align=left;verticalAlign=top;spacingLeft=4;spacingRight=4;overflow=hidden;rotatable=0;points=[[0,0.5],[1,0.5]];portConstraint=eastwest;" vertex="1" parent="qyMslexdIPvZ7T2pLc7d-33">
          <mxGeometry y="26" width="280" height="44" as="geometry" />
        </mxCell>
        <mxCell id="qyMslexdIPvZ7T2pLc7d-42" value="GroupAnomaly (AnomalyEvent)" style="swimlane;fontStyle=3;align=center;verticalAlign=top;childLayout=stackLayout;horizontal=1;startSize=26;horizontalStack=0;resizeParent=1;resizeLast=0;collapsible=1;marginBottom=0;rounded=0;shadow=1;strokeWidth=1;fillColor=#E3E3E3;strokeColor=#666666;swimlaneFillColor=#ffffff;gradientColor=#FFFFFF;" parent="1" vertex="1">
          <mxGeometry x="439" y="681" width="281" height="80" as="geometry">
            <mxRectangle x="230" y="140" width="160" height="26" as="alternateBounds" />
          </mxGeometry>
        </mxCell>
        <mxCell id="YVy0wCglDntbI4HoHNDa-4" value="__init__( p_raising_object, p_det_time,&#xa;               p_instances, p_mean,&#xa;               p_mean_deviation = None, **p_kwargs )" style="text;align=left;verticalAlign=top;spacingLeft=4;spacingRight=4;overflow=hidden;rotatable=0;points=[[0,0.5],[1,0.5]];portConstraint=eastwest;" vertex="1" parent="qyMslexdIPvZ7T2pLc7d-42">
          <mxGeometry y="26" width="281" height="54" as="geometry" />
        </mxCell>
        <mxCell id="qyMslexdIPvZ7T2pLc7d-46" value="ContextualAnomaly (AnomalyEvent)" style="swimlane;fontStyle=3;align=center;verticalAlign=top;childLayout=stackLayout;horizontal=1;startSize=26;horizontalStack=0;resizeParent=1;resizeLast=0;collapsible=1;marginBottom=0;rounded=0;shadow=1;strokeWidth=1;fillColor=#E3E3E3;strokeColor=#666666;swimlaneFillColor=#ffffff;gradientColor=#FFFFFF;" parent="1" vertex="1">
          <mxGeometry x="440" y="561" width="280" height="69" as="geometry">
            <mxRectangle x="230" y="140" width="160" height="26" as="alternateBounds" />
          </mxGeometry>
        </mxCell>
        <mxCell id="YVy0wCglDntbI4HoHNDa-6" value="__init__( p_raising_object, p_det_time,&#xa;               p_instance, **p_kwargs )" style="text;align=left;verticalAlign=top;spacingLeft=4;spacingRight=4;overflow=hidden;rotatable=0;points=[[0,0.5],[1,0.5]];portConstraint=eastwest;" vertex="1" parent="qyMslexdIPvZ7T2pLc7d-46">
          <mxGeometry y="26" width="280" height="34" as="geometry" />
        </mxCell>
        <mxCell id="jz15sazqzu-KmnHcjdQ--1" style="edgeStyle=orthogonalEdgeStyle;rounded=0;orthogonalLoop=1;jettySize=auto;html=1;fontColor=#0000FF;endArrow=block;endFill=0;entryX=0.5;entryY=1;entryDx=0;entryDy=0;exitX=0.5;exitY=0;exitDx=0;exitDy=0;" parent="1" source="qyMslexdIPvZ7T2pLc7d-33" target="qyMslexdIPvZ7T2pLc7d-18" edge="1">
          <mxGeometry relative="1" as="geometry">
            <mxPoint x="268.5" y="710" as="targetPoint" />
            <Array as="points" />
            <mxPoint x="269" y="620" as="sourcePoint" />
          </mxGeometry>
        </mxCell>
        <mxCell id="YVy0wCglDntbI4HoHNDa-8" style="edgeStyle=orthogonalEdgeStyle;rounded=0;orthogonalLoop=1;jettySize=auto;html=1;fontColor=#0000FF;endArrow=block;endFill=0;entryX=1;entryY=0.318;entryDx=0;entryDy=0;entryPerimeter=0;exitX=0.5;exitY=1;exitDx=0;exitDy=0;" edge="1" parent="1" source="qyMslexdIPvZ7T2pLc7d-46" target="YVy0wCglDntbI4HoHNDa-2">
          <mxGeometry relative="1" as="geometry">
            <mxPoint x="409" y="600" as="targetPoint" />
            <Array as="points">
              <mxPoint x="580" y="650" />
              <mxPoint x="420" y="650" />
              <mxPoint x="420" y="600" />
              <mxPoint x="400" y="600" />
            </Array>
            <mxPoint x="409" y="650" as="sourcePoint" />
          </mxGeometry>
        </mxCell>
        <mxCell id="YVy0wCglDntbI4HoHNDa-9" style="edgeStyle=orthogonalEdgeStyle;rounded=0;orthogonalLoop=1;jettySize=auto;html=1;fontColor=#0000FF;endArrow=block;endFill=0;exitX=0.503;exitY=1.023;exitDx=0;exitDy=0;exitPerimeter=0;" edge="1" parent="1" source="YVy0wCglDntbI4HoHNDa-4">
          <mxGeometry relative="1" as="geometry">
            <mxPoint x="400" y="600" as="targetPoint" />
            <Array as="points">
              <mxPoint x="580" y="781" />
              <mxPoint x="420" y="781" />
              <mxPoint x="420" y="600" />
            </Array>
            <mxPoint x="567.96" y="762.026" as="sourcePoint" />
          </mxGeometry>
        </mxCell>
        <mxCell id="YVy0wCglDntbI4HoHNDa-12" style="edgeStyle=orthogonalEdgeStyle;rounded=0;orthogonalLoop=1;jettySize=auto;html=1;fontColor=#0000FF;endArrow=block;endFill=0;exitX=0.5;exitY=1;exitDx=0;exitDy=0;" edge="1" parent="1" source="qyMslexdIPvZ7T2pLc7d-29">
          <mxGeometry relative="1" as="geometry">
            <mxPoint x="400" y="600" as="targetPoint" />
            <Array as="points">
              <mxPoint x="580" y="530" />
              <mxPoint x="420" y="530" />
              <mxPoint x="420" y="600" />
            </Array>
            <mxPoint x="580" y="530" as="sourcePoint" />
          </mxGeometry>
        </mxCell>
      </root>
    </mxGraphModel>
  </diagram>
</mxfile>
